# AST/ASF file generated using VICON BodyLanguage
# -----------------------------------------------
:version 1.10
:name VICON
:units
  mass 1.0
  length 0.45
  angle deg
:documentation
   .ast/.asf automatically generated from VICON data using
   VICON BodyBuilder and BodyLanguage model FoxedUp or BRILLIANT.MOD
:root
   order TX TY TZ RX RY RZ
   axis XYZ
   position 0 0 0  
   orientation 0 0 0 
:bonedata
  begin
     id 1 
     name lhipjoint
     direction 0.650112 -0.723553 0.232005 
     length 2.45805 
     axis 0 0 0  XYZ
  end
  begin
     id 2 
     name lfemur
     direction 0.34202 -0.939693 0  
     length 7.00073  
     axis 0 0 20  XYZ
    dof rx ry rz
    limits (-160.0 20.0)
           (-70.0 70.0)
           (-60.0 70.0)
  end
  begin
     id 3 
     name ltibia
     direction 0.34202 -0.939693 0   
     length 7.8748   
     axis 0 0 20   XYZ
    dof rx
    limits (-10.0 170.0)
  end
  begin
     id 4 
     name lfoot
     direction 0.0542825 -0.14914 0.987325   
     length 1.75978   
     axis -90 7.62852e-016 20   XYZ
    dof rx rz
    limits (-45.0 90.0)
           (-70.0 20.0)
  end
  begin
     id 5 
     name ltoes
     direction 1.53509e-011 -4.21906e-011 1   
     length 0.893912   
     axis -90 7.62852e-016 20   XYZ
    dof rx
    limits (-90.0 20.0)
  end
  begin
     id 6 
     name rhipjoint
     direction -0.637897 -0.733345 0.235145   
     length 2.42522  
     axis 0 0 0  XYZ 
  end
  begin
     id 7 
     name rfemur
     direction -0.34202 -0.939693 0   
     length 7.02549   
     axis 0 0 -20   XYZ
    dof rx ry rz
    limits (-160.0 20.0)
           (-70.0 70.0)
           (-70.0 60.0)
  end
  begin
     id 8 
     name rtibia
     direction -0.34202 -0.939693 0   
     length 7.71512   
     axis 0 0 -20   XYZ
    dof rx
    limits (-10.0 170.0)
 end
 begin
     id 9 
     name rfoot
     direction -0.0822618 -0.226012 0.970645   
     length 1.90014  
     axis -90 -7.62852e-016 -20   XYZ
    dof rx rz
    limits (-45.0 90.0)
           (-20.0 70.0)
  end
  begin
     id 10 
     name rtoes
     direction -1.53542e-011 -4.21872e-011 1   
     length 0.957341   
     axis -90 -7.62852e-016 -20   XYZ
    dof rx
    limits (-90.0 20.0)
  end
  begin
     id 11 
     name lowerback
     direction -0.0022947 0.999774 -0.0211557   
     length 1.89909   
     axis 0 0 0   XYZ
    dof rx ry rz
    limits (-20.0 45.0)
           (-30.0 30.0)
           (-30.0 30.0)
  end
  begin
     id 12 
     name upperback
     direction 0.0107737 0.998635 0.0511027   
     length 1.8853   
     axis 0 0 0   XYZ
    dof rx ry rz
    limits (-20.0 45.0)
           (-30.0 30.0)
           (-30.0 30.0)
  end
  begin
     id 13 
     name thorax
     direction 0.011824 0.998136 0.0598754   
     length 1.88911   
     axis 0 0 0   XYZ
    dof rx ry rz
    limits (-20.0 45.0)
           (-30.0 30.0)
           (-30.0 30.0)
  end
  begin
     id 14 
     name lowerneck
     direction -0.0685355 0.990319 0.120714   
     length 1.91222   
     axis 0 0 0   XYZ
    dof rx ry rz
    limits (-20.0 45.0)
           (-30.0 30.0)
           (-30.0 30.0)
  end
  begin
     id 15 
     name upperneck
     direction 0.0886204 0.955665 -0.280805   
     length 1.92526   
     axis 0 0 0   XYZ
    dof rx ry rz
    limits (-20.0 45.0)
           (-30.0 30.0)
           (-30.0 30.0)
  end
  begin
     id 16
     name head
     direction 0.0233423 0.993502 -0.111393  
     length 1.96056  
     axis 0 0 0   XYZ
    dof rx ry rz
    limits (-20.0 45.0)
           (-30.0 30.0)
           (-30.0 30.0)
  end
  begin
     id 17 
     name lclavicle
     direction 0.941873 0.32922 0.0670041  
     length 3.31705  
     axis 0 0 0   XYZ
    dof ry rz
    limits (-20.0 10.0)
           (0.0 20.0)
  end
  begin
     id 18 
     name lhumerus
     direction 1 -4.4898e-011 3.38707e-028   
     length 5.29277   
     axis 180 -30 -90   XYZ
    dof rx ry rz
    limits (-60.0 90.0)
           (-90.0 90.0)
           (-90.0 90.0)
  end
  begin
     id 19
     name lradius
     direction 1 -4.48952e-011 1.63213e-028   
     length 2.85226   
     axis 180 -30 -90   XYZ
    dof rx
    limits (-10.0 170.0)
  end
  begin
     id 20
     name lwrist
     direction 1 -4.49001e-011 1.27856e-027   
     length 1.42613   
     axis -1.61767e-015 90 90   XYZ
    dof ry
    limits (-180.0 0.0)
 end
  begin
     id 21 
     name lhand
     direction 1 -4.48976e-011 2.55931e-027   
     length 0.602097   
     axis -1.63363e-015 90 90   XYZ
    dof rx rz
    limits (-90.0 90.0)
           (-45.0 45.0)
  end
  begin
     id 22 
     name lfingers
     direction 1 -4.48986e-011 5.11684e-027   
     length 0.485426   
     axis -3.26723e-015 90 90   XYZ
    dof rx
    limits (0.0 90.0)
  end
  begin
     id 23
     name lthumb
     direction 0.707107 -6.34915e-011 0.707107   
     length 0.696978   
     axis -90 45 -2.25915e-014   XYZ
    dof rx rz
    limits (-45.0 45.0)
           (-45.0 45.0)
  end
  begin
     id 24 
     name rclavicle
     direction -0.939974 0.327078 0.0973096   
     length 3.10337  
     axis 0 0 0   XYZ 
    dof ry rz
    limits (-10.0 20.0)
           (-20.0 0.0)
  end
  begin
     id 25 
     name rhumerus
     direction -1 -4.48975e-011 1.83745e-027  
     length 5.13304   
     axis 180 30 90   XYZ
    dof rx ry rz
    limits (-90.0 60.0)
           (-90.0 90.0)
           (-90.0 90.0)
  end
  begin
     id 26 
     name rradius
     direction -1 -4.48977e-011 7.1775e-029   
     length 2.74305   
     axis 180 30 90   XYZ
    dof rx
    limits (-10.0 170.0)
  end
  begin
     id 27 
     name rwrist
     direction -1 -4.48977e-011 1.27963e-027   
     length 1.37152   
     axis -1.61767e-015 -90 -90   XYZ
    dof ry
    limits (-180.0 0.0)
  end
  begin
     id 28
     name rhand
     direction -1 -4.4888e-011 2.56782e-027   
     length 0.767976   
     axis -1.63363e-015 -90 -90   XYZ
    dof rx rz
    limits (-90.0 90.0)
           (-45.0 45.0)
  end
  begin
     id 29
     name rfingers
     direction -1 -4.48947e-011 5.12384e-027   
     length 0.619162   
     axis -3.26723e-015 -90 -90   XYZ
    dof rx
    limits (0.0 90.0)
  end
  begin
     id 30
     name rthumb
     direction -0.707107 -6.34857e-011 0.707107   
     length 0.888997   
     axis -90 -45 2.25915e-014   XYZ
    dof rx rz
    limits (-45.0 45.0)
           (-45.0 45.0)
  end
:hierarchy
  begin
    root lhipjoint rhipjoint lowerback
    lhipjoint lfemur
    lfemur ltibia
    ltibia lfoot
    lfoot ltoes
    rhipjoint rfemur
    rfemur rtibia
    rtibia rfoot
    rfoot rtoes
    lowerback upperback
    upperback thorax
    thorax lowerneck lclavicle rclavicle
    lowerneck upperneck
    upperneck head
    lclavicle lhumerus
    lhumerus lradius
    lradius lwrist
    lwrist lhand lthumb
    lhand lfingers
    rclavicle rhumerus
    rhumerus rradius
    rradius rwrist
    rwrist rhand rthumb
    rhand rfingers
  end

#!OML:ASF F:\VICON\USERDATA\INSTALL\rory3\rory3.ASF
:FULLY-SPECIFIED
:DEGREES
463
root 0.100427 17.4476 -1.06673 9.61544 1.88868 0.0555004
lowerback 4.96632 0.189042 -0.341731
upperback 1.26477 0.255669 1.19464
thorax -1.49115 0.129051 1.40243
lowerneck -10.0196 -11.6434 -16.8226
upperneck 16.9563 -16.7824 17.7516
head 10.0525 -7.53118 6.68651
rclavicle -1.49089e-015 3.18055e-015
rhumerus -27.2399 13.6878 -92.8452
rradius 28.3204
rwrist 22.5089
rhand 2.61315 12.7999
rfingers 7.12502
rthumb 28.0908 -15.1166
lclavicle -1.49089e-015 3.18055e-015
lhumerus -27.7684 -22.0699 97.4694
lradius 33.3084
lwrist 4.35422
lhand 0.153816 27.0877
lfingers 7.12502
lthumb 25.7377 55.3672
rfemur -14.0982 10.6545 17.1461
rtibia 16.8303
rfoot -10.595 -14.1708
rtoes -12.9673
lfemur -17.6006 -15.2056 -16.1348
ltibia 20.2521
lfoot -12.2408 8.31489
ltoes -19.7161
464
root 0.0995012 17.4437 -1.05669 9.52162 1.93881 -0.0250472
lowerback 4.8604 0.175196 -0.292237
upperback 1.27243 0.238989 1.17503
thorax -1.42343 0.120295 1.35568
lowerneck -9.94451 -11.61 -16.7131
upperneck 16.9296 -16.7727 17.7982
head 10.0215 -7.52129 6.69126
rclavicle -3.97569e-016 6.36111e-015
rhumerus -26.9278 12.302 -92.4275
rradius 27.7162
rwrist 22.7879
rhand 2.47581 12.8059
rfingers 7.12502
rthumb 27.9595 -15.1321
lclavicle -3.97569e-016 6.36111e-015
lhumerus -27.6541 -21.0959 96.9974
lradius 33.5309
lwrist 1.98524
lhand -0.179557 26.1126
lfingers 7.12502
lthumb 25.4184 54.4379
rfemur -14.0185 10.5571 17.2841
rtibia 16.9659
rfoot -10.8057 -14.1443
rtoes -12.859
lfemur -17.5606 -15.1018 -16.0791
ltibia 20.4276
lfoot -12.4652 8.10091
ltoes -18.5595
465
root 0.0986081 17.4401 -1.04746 9.44749 1.99918 -0.113964
lowerback 4.78276 0.179518 -0.213953
upperback 1.22917 0.248605 1.17184
thorax -1.4244 0.12508 1.30795
lowerneck -9.92699 -11.636 -16.6822
upperneck 17.0851 -16.8382 17.7733
head 10.08 -7.54933 6.66973
rclavicle 1.2921e-015 -6.75868e-015
rhumerus -26.7041 10.4993 -91.8764
rradius 27.0357
rwrist 23.6039
rhand 2.23301 13.0832
rfingers 7.12502
rthumb 27.7274 -14.8923
lclavicle 1.2921e-015 -6.75868e-015
lhumerus -27.6513 -20.137 96.6882
lradius 33.5835
lwrist 0.16146
lhand -0.949788 25.3295
lfingers 7.12502
lthumb 24.6803 53.7579
rfemur -13.9502 10.4486 17.4176
rtibia 17.0567
rfoot -10.9803 -14.0445
rtoes -12.3953
lfemur -17.5656 -14.9696 -16.0134
ltibia 20.6391
lfoot -12.5916 7.91593
ltoes -17.8571
466
root 0.0975875 17.4364 -1.03747 9.37 2.03889 -0.283494
lowerback 4.70078 0.221684 -0.0554017
upperback 1.1554 0.313071 1.19629
thorax -1.45521 0.157192 1.24033
lowerneck -9.83506 -11.6854 -16.7255
upperneck 17.2023 -16.9414 17.8003
head 10.1314 -7.60024 6.67471
rclavicle -1.49089e-015 1.59028e-015
rhumerus -26.6425 8.68948 -91.298
rradius 26.461
rwrist 24.4512
rhand 1.9376 13.2774
rfingers 7.12502
rthumb 27.4449 -14.7433
lclavicle -1.49089e-015 1.59028e-015
lhumerus -27.735 -19.1887 96.5137
lradius 33.368
lwrist -1.25535
lhand -2.49409 24.0984
lfingers 7.12502
lthumb 23.1994 52.7212
rfemur -13.8449 10.3485 17.6428
rtibia 17.0727
rfoot -11.0051 -13.9657
rtoes -12.4587
lfemur -17.5682 -14.7641 -15.8731
ltibia 20.8599
lfoot -12.5508 7.8555
ltoes -19.4345
467
root 0.0975409 17.4321 -1.02447 9.24348 2.02021 -0.276251
lowerback 4.61858 0.231764 -0.17726
upperback 1.12126 0.321751 1.26531
thorax -1.44557 0.162013 1.37935
lowerneck -9.87133 -11.6943 -16.8573
upperneck 17.4134 -16.9419 17.7245
head 10.2172 -7.60848 6.67141
rclavicle -7.7526e-015 -6.36111e-015
rhumerus -26.4659 7.51386 -90.7705
rradius 25.8601
rwrist 24.7621
rhand 1.81092 13.1808
rfingers 7.12502
rthumb 27.3237 -14.859
lclavicle -7.7526e-015 -6.36111e-015
lhumerus -27.7079 -17.9461 96.3409
lradius 33.0747
lwrist -2.64242
lhand -3.87611 23.0466
lfingers 7.12502
lthumb 21.8729 51.8303
rfemur -13.6619 10.3121 17.6731
rtibia 17.0841
rfoot -11.0853 -13.9592
rtoes -12.8791
lfemur -17.4589 -14.5964 -15.9467
ltibia 21.0285
lfoot -12.6955 7.64625
ltoes -19.4871
